<svg width="32" height="32" viewBox="0 0 32 32" fill="none" xmlns="http://www.w3.org/2000/svg">
<path d="M29.3337 11.9733V24C29.3337 25.4667 28.1337 26.6667 26.667 26.6667H5.33366C3.86699 26.6667 2.66699 25.4667 2.66699 24L2.68033 8.00001C2.68033 6.53334 3.86699 5.33334 5.33366 5.33334H18.8003C18.7203 5.76001 18.667 6.21334 18.667 6.66667C18.667 7.12001 18.7203 7.57334 18.8003 8.00001H5.33366L16.0003 14.6667L20.8937 11.6133C21.5203 12.1867 22.2537 12.6267 23.067 12.92L16.0003 17.3333L5.33366 10.6667V24H26.667V13.2C27.6537 13 28.5603 12.56 29.3337 11.9733ZM21.3337 6.66667C21.3337 8.88001 23.1203 10.6667 25.3337 10.6667C27.547 10.6667 29.3337 8.88001 29.3337 6.66667C29.3337 4.45334 27.547 2.66667 25.3337 2.66667C23.1203 2.66667 21.3337 4.45334 21.3337 6.66667Z" fill="#5F30E2"/>
</svg>
