<svg width="33" height="34" viewBox="0 0 33 34" fill="none" xmlns="http://www.w3.org/2000/svg">
<path d="M16.5 19.8333C19.5332 19.8333 22 17.2918 22 14.1667C22 11.0415 19.5332 8.5 16.5 8.5C13.4667 8.5 11 11.0415 11 14.1667C11 17.2918 13.4667 19.8333 16.5 19.8333ZM16.5 11.3333C18.0166 11.3333 19.25 12.6041 19.25 14.1667C19.25 15.7292 18.0166 17 16.5 17C14.9834 17 13.75 15.7292 13.75 14.1667C13.75 12.6041 14.9834 11.3333 16.5 11.3333Z" fill="#5F30E2"/>
<path d="M15.7026 30.9032C15.9353 31.0744 16.2142 31.1665 16.5001 31.1665C16.7861 31.1665 17.0649 31.0744 17.2976 30.9032C17.7156 30.5986 27.54 23.29 27.5001 14.1667C27.5001 7.91776 22.5652 2.83334 16.5001 2.83334C10.435 2.83334 5.50012 7.91776 5.50012 14.1596C5.46025 23.29 15.2846 30.5986 15.7026 30.9032ZM16.5001 5.66668C21.05 5.66668 24.7501 9.47893 24.7501 14.1738C24.779 20.4609 18.7166 26.1063 16.5001 27.9579C14.285 26.1049 8.22125 20.4581 8.25012 14.1667C8.25012 9.47893 11.9502 5.66668 16.5001 5.66668Z" fill="#5F30E2"/>
</svg>
