<svg width="26" height="26" viewBox="0 0 26 26" fill="none" xmlns="http://www.w3.org/2000/svg">
<path d="M18.668 15.6C18.772 14.742 18.85 13.884 18.85 13C18.85 12.116 18.772 11.258 18.668 10.4H23.062C23.27 11.232 23.4 12.103 23.4 13C23.4 13.897 23.27 14.768 23.062 15.6H18.668ZM16.367 22.828C17.147 21.385 17.745 19.825 18.161 18.2H21.996C20.7365 20.3688 18.7383 22.0116 16.367 22.828ZM16.042 15.6H9.958C9.828 14.742 9.75 13.884 9.75 13C9.75 12.116 9.828 11.245 9.958 10.4H16.042C16.159 11.245 16.25 12.116 16.25 13C16.25 13.884 16.159 14.742 16.042 15.6ZM13 23.348C11.921 21.788 11.05 20.059 10.517 18.2H15.483C14.95 20.059 14.079 21.788 13 23.348ZM7.8 7.8H4.004C5.25051 5.62538 7.24723 3.97993 9.62 3.172C8.84 4.615 8.255 6.175 7.8 7.8ZM4.004 18.2H7.8C8.255 19.825 8.84 21.385 9.62 22.828C7.25221 22.0112 5.2583 20.368 4.004 18.2ZM2.938 15.6C2.73 14.768 2.6 13.897 2.6 13C2.6 12.103 2.73 11.232 2.938 10.4H7.332C7.228 11.258 7.15 12.116 7.15 13C7.15 13.884 7.228 14.742 7.332 15.6H2.938ZM13 2.639C14.079 4.199 14.95 5.941 15.483 7.8H10.517C11.05 5.941 11.921 4.199 13 2.639ZM21.996 7.8H18.161C17.7541 6.18989 17.1516 4.63566 16.367 3.172C18.759 3.991 20.748 5.642 21.996 7.8ZM13 0C5.811 0 0 5.85 0 13C0 16.4478 1.36964 19.7544 3.80761 22.1924C5.01477 23.3995 6.44788 24.3571 8.02512 25.0104C9.60235 25.6637 11.2928 26 13 26C16.4478 26 19.7544 24.6304 22.1924 22.1924C24.6304 19.7544 26 16.4478 26 13C26 11.2928 25.6637 9.60235 25.0104 8.02512C24.3571 6.44788 23.3995 5.01477 22.1924 3.80761C20.9852 2.60045 19.5521 1.64288 17.9749 0.989566C16.3977 0.336255 14.7072 0 13 0Z" fill="#5F30E2"/>
</svg>
