<svg width="93" height="125" viewBox="0 0 93 125" fill="none" xmlns="http://www.w3.org/2000/svg">
<path d="M5.8125 125H87.1875C90.3921 125 93 122.371 93 119.141V37.1094C93 37.043 92.969 36.9883 92.9651 36.9258C92.9574 36.8359 92.9341 36.7578 92.9147 36.6719C92.8539 36.4005 92.7349 36.1458 92.566 35.9258C92.5389 35.8906 92.5427 35.8477 92.5156 35.8125L61.5156 0.65625C61.504 0.644531 61.4885 0.644531 61.4769 0.632812C61.2404 0.383634 60.942 0.202887 60.6128 0.109375C60.5391 0.0859375 60.4733 0.078125 60.3958 0.0664062C60.2834 0.046875 60.1787 0 60.0625 0H5.8125C2.60787 0 0 2.62891 0 5.85938V119.141C0 122.371 2.60787 125 5.8125 125ZM62 7.08984L86.7496 35.1562H63.9375C63.085 35.1562 62 33.5156 62 32.2266V7.08984ZM3.875 5.85938C3.875 5.34137 4.07913 4.84459 4.44248 4.47831C4.80583 4.11202 5.29864 3.90625 5.8125 3.90625H58.125V32.2266C58.125 35.3867 60.6631 39.0625 63.9375 39.0625H89.125V119.141C89.125 119.659 88.9209 120.155 88.5575 120.522C88.1942 120.888 87.7014 121.094 87.1875 121.094H5.8125C4.7275 121.094 3.875 120.234 3.875 119.141V5.85938Z" fill="#B9A3F6"/>
<path d="M21.3125 54.6875H71.6875C72.2014 54.6875 72.6942 54.4817 73.0575 54.1154C73.4209 53.7492 73.625 53.2524 73.625 52.7344C73.625 52.2164 73.4209 51.7196 73.0575 51.3533C72.6942 50.987 72.2014 50.7812 71.6875 50.7812H21.3125C20.7986 50.7812 20.3058 50.987 19.9425 51.3533C19.5791 51.7196 19.375 52.2164 19.375 52.7344C19.375 53.2524 19.5791 53.7492 19.9425 54.1154C20.3058 54.4817 20.7986 54.6875 21.3125 54.6875Z" fill="#B9A3F6"/>
<path d="M21.3125 70.3125H71.6875C72.2014 70.3125 72.6942 70.1067 73.0575 69.7404C73.4209 69.3742 73.625 68.8774 73.625 68.3594C73.625 67.8414 73.4209 67.3446 73.0575 66.9783C72.6942 66.612 72.2014 66.4062 71.6875 66.4062H21.3125C20.7986 66.4062 20.3058 66.612 19.9425 66.9783C19.5791 67.3446 19.375 67.8414 19.375 68.3594C19.375 68.8774 19.5791 69.3742 19.9425 69.7404C20.3058 70.1067 20.7986 70.3125 21.3125 70.3125Z" fill="#B9A3F6"/>
<path d="M21.3125 39.0625H44.5625C45.0764 39.0625 45.5692 38.8567 45.9325 38.4904C46.2959 38.1242 46.5 37.6274 46.5 37.1094C46.5 36.5914 46.2959 36.0946 45.9325 35.7283C45.5692 35.362 45.0764 35.1562 44.5625 35.1562H21.3125C20.7986 35.1562 20.3058 35.362 19.9425 35.7283C19.5791 36.0946 19.375 36.5914 19.375 37.1094C19.375 37.6274 19.5791 38.1242 19.9425 38.4904C20.3058 38.8567 20.7986 39.0625 21.3125 39.0625Z" fill="#B9A3F6"/>
<path d="M21.3125 85.9375H71.6875C72.2014 85.9375 72.6942 85.7317 73.0575 85.3654C73.4209 84.9992 73.625 84.5024 73.625 83.9844C73.625 83.4664 73.4209 82.9696 73.0575 82.6033C72.6942 82.237 72.2014 82.0312 71.6875 82.0312H21.3125C20.7986 82.0312 20.3058 82.237 19.9425 82.6033C19.5791 82.9696 19.375 83.4664 19.375 83.9844C19.375 84.5024 19.5791 84.9992 19.9425 85.3654C20.3058 85.7317 20.7986 85.9375 21.3125 85.9375Z" fill="#B9A3F6"/>
<path d="M21.3125 101.562H71.6875C72.2014 101.562 72.6942 101.357 73.0575 100.99C73.4209 100.624 73.625 100.127 73.625 99.6094C73.625 99.0914 73.4209 98.5946 73.0575 98.2283C72.6942 97.862 72.2014 97.6562 71.6875 97.6562H21.3125C20.7986 97.6562 20.3058 97.862 19.9425 98.2283C19.5791 98.5946 19.375 99.0914 19.375 99.6094C19.375 100.127 19.5791 100.624 19.9425 100.99C20.3058 101.357 20.7986 101.562 21.3125 101.562Z" fill="#B9A3F6"/>
</svg>
