<svg width="177" height="32" viewBox="0 0 177 32" fill="none" xmlns="http://www.w3.org/2000/svg">
<path d="M7.21828 19.2533C6.89106 18.8973 6.69825 18.4434 6.67171 17.9665V12.0186C6.69818 11.5416 6.89099 11.0877 7.21828 10.7318L7.65055 10.3109C7.79551 10.1695 7.87691 9.97787 7.87691 9.77808C7.87691 9.57829 7.79551 9.38665 7.65055 9.24525L3.06545 4.78025C2.92005 4.63926 2.72321 4.5601 2.518 4.5601C2.31279 4.5601 2.11595 4.63926 1.97055 4.78025L0.225232 6.47964C0.0809468 6.6214 0 6.81289 0 7.01247C0 7.21205 0.0809468 7.40354 0.225232 7.5453L3.4977 10.7316C3.82557 11.0872 4.01865 11.5413 4.04486 12.0185V17.9663C4.01872 18.4433 3.82562 18.897 3.4977 19.2523L0.225232 22.4398C0.0809468 22.5816 0 22.7732 0 22.9726C0 23.1722 0.0809468 23.3637 0.225232 23.5055L1.97055 25.2048C2.11596 25.3458 2.3128 25.425 2.518 25.425C2.7232 25.425 2.92004 25.3458 3.06545 25.2048L7.65055 20.7395C7.79549 20.598 7.87689 20.4065 7.87689 20.2068C7.87689 20.0069 7.79549 19.8154 7.65055 19.674L7.21828 19.2533Z" fill="#583BD1"/>
<path d="M19.819 23.0026C19.4536 23.3212 18.9876 23.5092 18.4977 23.5356H12.3908C11.9006 23.5092 11.4342 23.3214 11.0683 23.0026L10.6371 22.5807C10.4912 22.4401 10.2943 22.3614 10.0891 22.3614C9.88396 22.3614 9.68707 22.4401 9.54117 22.5807L4.95665 27.0457C4.81191 27.1875 4.73065 27.3793 4.73065 27.5792C4.73065 27.779 4.81191 27.9708 4.95665 28.1125L6.70196 29.812C6.84769 29.9525 7.04447 30.0312 7.24955 30.0312C7.45463 30.0312 7.65142 29.9525 7.79715 29.812L11.0689 26.624C11.4347 26.3055 11.901 26.1177 12.391 26.0913H18.4996C18.9895 26.1175 19.4555 26.3054 19.8209 26.624L23.0941 29.812C23.2398 29.9525 23.4364 30.0312 23.6415 30.0312C23.8464 30.0312 24.0432 29.9525 24.1887 29.812L25.934 28.1125C26.0788 27.9708 26.1601 27.779 26.1601 27.5792C26.1601 27.3793 26.0788 27.1875 25.934 27.0457L21.3462 22.5804C21.2006 22.4398 21.004 22.3611 20.7991 22.3611C20.5942 22.3611 20.3974 22.4398 20.2519 22.5804L19.819 23.0026Z" fill="#583BD1"/>
<path d="M23.7798 10.7777C24.1078 11.1339 24.3012 11.5886 24.3279 12.0664V18.0119C24.3011 18.4895 24.1077 18.9437 23.7798 19.2996L23.3474 19.7214C23.2028 19.8631 23.1218 20.0546 23.1218 20.2544C23.1218 20.454 23.2028 20.6455 23.3474 20.7871L27.9337 25.2516C28.0791 25.3925 28.2761 25.4716 28.4811 25.4716C28.6863 25.4716 28.8831 25.3925 29.0285 25.2516L30.7738 23.5513C30.9186 23.4098 31 23.2181 31 23.0184C31 22.8186 30.9186 22.627 30.7738 22.4855L27.5021 19.299C27.174 18.9432 26.9805 18.4889 26.9537 18.0114L26.9546 12.0658C26.9809 11.588 27.174 11.1334 27.5021 10.7771L30.7738 7.59076C30.9186 7.44951 31 7.25808 31 7.0585C31 6.85892 30.9186 6.66748 30.7738 6.52624L29.0285 4.82586C28.9566 4.75587 28.8713 4.70034 28.7774 4.66246C28.6834 4.62458 28.5829 4.60507 28.4811 4.60507C28.3795 4.60507 28.2788 4.62458 28.185 4.66246C28.0909 4.70034 28.0056 4.75587 27.9337 4.82586L23.3474 9.29015C23.2028 9.43179 23.1218 9.62337 23.1218 9.82305C23.1218 10.0227 23.2028 10.2143 23.3474 10.3559L23.7798 10.7777Z" fill="#583BD1"/>
<path d="M11.1789 7.02843C11.5442 6.70939 12.0105 6.52139 12.5006 6.49553H18.6079C19.0978 6.52184 19.5638 6.70979 19.9294 7.02843L20.3627 7.45016C20.4344 7.52014 20.5197 7.57564 20.6136 7.61352C20.7075 7.65138 20.808 7.67089 20.9096 7.67089C21.0112 7.67089 21.1119 7.65138 21.2056 7.61352C21.2995 7.57564 21.3848 7.52014 21.4567 7.45016L26.0424 2.98488C26.187 2.84312 26.2682 2.65136 26.2682 2.45149C26.2682 2.25162 26.187 2.05986 26.0424 1.91809L24.2971 0.220693C24.1518 0.079379 23.9549 0 23.7495 0C23.5442 0 23.3473 0.079379 23.202 0.220693L19.9295 3.40705C19.564 3.72568 19.0979 3.91363 18.608 3.93993H12.5006C12.0105 3.91408 11.5442 3.72607 11.1789 3.40705L7.90643 0.220693C7.76071 0.0802391 7.56396 0.00145211 7.35891 0.00145211C7.15387 0.00145211 6.95711 0.0802391 6.81138 0.220693L5.06607 1.92007C4.92137 2.06182 4.84015 2.25355 4.84015 2.4534C4.84015 2.65325 4.92137 2.84498 5.06607 2.98672L9.65074 7.45002C9.79598 7.59134 9.99292 7.67071 10.1983 7.67071C10.4036 7.67071 10.6005 7.59134 10.7458 7.45002L11.1789 7.02843Z" fill="#583BD1"/>
<path d="M40.888 12.236C41.2 11.404 41.7113 10.78 42.422 10.364C43.15 9.948 43.956 9.74 44.84 9.74V13.484C43.8173 13.3627 42.8987 13.5707 42.084 14.108C41.2867 14.6453 40.888 15.538 40.888 16.786V23H37.534V10H40.888V12.236ZM48.1132 17.878C48.5638 19.5073 49.7858 20.322 51.7792 20.322C53.0618 20.322 54.0325 19.8887 54.6912 19.022L57.3952 20.582C56.1125 22.4367 54.2232 23.364 51.7272 23.364C49.5778 23.364 47.8532 22.714 46.5532 21.414C45.2532 20.114 44.6032 18.476 44.6032 16.5C44.6032 14.5413 45.2445 12.912 46.5272 11.612C47.8098 10.2947 49.4565 9.636 51.4672 9.636C53.3738 9.636 54.9425 10.2947 56.1732 11.612C57.4212 12.9293 58.0452 14.5587 58.0452 16.5C58.0452 16.9333 58.0018 17.3927 57.9152 17.878H48.1132ZM48.0612 15.278H54.6912C54.5005 14.394 54.1018 13.7353 53.4952 13.302C52.9058 12.8687 52.2298 12.652 51.4672 12.652C50.5658 12.652 49.8205 12.886 49.2312 13.354C48.6418 13.8047 48.2518 14.446 48.0612 15.278ZM61.9328 13.692C61.9328 14.0387 62.1581 14.3247 62.6088 14.55C63.0768 14.758 63.6401 14.9487 64.2988 15.122C64.9574 15.278 65.6161 15.486 66.2748 15.746C66.9334 15.9887 67.4881 16.4047 67.9388 16.994C68.4068 17.5833 68.6408 18.32 68.6408 19.204C68.6408 20.5387 68.1381 21.57 67.1328 22.298C66.1448 23.0087 64.9054 23.364 63.4148 23.364C60.7454 23.364 58.9254 22.3327 57.9548 20.27L60.8668 18.632C61.2481 19.7587 62.0974 20.322 63.4148 20.322C64.6108 20.322 65.2088 19.9493 65.2088 19.204C65.2088 18.8573 64.9748 18.58 64.5068 18.372C64.0561 18.1467 63.5014 17.9473 62.8428 17.774C62.1841 17.6007 61.5254 17.384 60.8668 17.124C60.2081 16.864 59.6448 16.4567 59.1768 15.902C58.7261 15.33 58.5008 14.6193 58.5008 13.77C58.5008 12.4873 58.9688 11.482 59.9048 10.754C60.8581 10.0087 62.0368 9.636 63.4408 9.636C64.4981 9.636 65.4601 9.87867 66.3268 10.364C67.1934 10.832 67.8781 11.508 68.3808 12.392L65.5208 13.952C65.1048 13.068 64.4114 12.626 63.4408 12.626C63.0074 12.626 62.6434 12.7213 62.3488 12.912C62.0714 13.1027 61.9328 13.3627 61.9328 13.692ZM78.3378 10H81.6918V23H78.3378V21.544C77.5231 22.7573 76.2318 23.364 74.4638 23.364C73.0424 23.364 71.8638 22.8873 70.9278 21.934C70.0091 20.9807 69.5498 19.6633 69.5498 17.982V10H72.9038V17.566C72.9038 18.4327 73.1378 19.1 73.6058 19.568C74.0738 20.0187 74.6978 20.244 75.4778 20.244C76.3444 20.244 77.0378 19.9753 77.5578 19.438C78.0778 18.9007 78.3378 18.0947 78.3378 17.02V10ZM98.1016 9.636C99.5923 9.636 100.78 10.1213 101.664 11.092C102.565 12.0627 103.016 13.3627 103.016 14.992V23H99.6616V15.226C99.6616 14.446 99.4709 13.8393 99.0896 13.406C98.7083 12.9727 98.1709 12.756 97.4776 12.756C96.7149 12.756 96.1169 13.0073 95.6836 13.51C95.2676 14.0127 95.0596 14.7407 95.0596 15.694V23H91.7056V15.226C91.7056 14.446 91.5149 13.8393 91.1336 13.406C90.7523 12.9727 90.2149 12.756 89.5216 12.756C88.7763 12.756 88.1783 13.0073 87.7276 13.51C87.2943 14.0127 87.0776 14.7407 87.0776 15.694V23H83.7236V10H87.0776V11.378C87.8576 10.2167 89.0623 9.636 90.6916 9.636C92.2863 9.636 93.4649 10.26 94.2276 11.508C95.0943 10.26 96.3856 9.636 98.1016 9.636ZM107.658 17.878C108.109 19.5073 109.331 20.322 111.324 20.322C112.607 20.322 113.578 19.8887 114.236 19.022L116.94 20.582C115.658 22.4367 113.768 23.364 111.272 23.364C109.123 23.364 107.398 22.714 106.098 21.414C104.798 20.114 104.148 18.476 104.148 16.5C104.148 14.5413 104.79 12.912 106.072 11.612C107.355 10.2947 109.002 9.636 111.012 9.636C112.919 9.636 114.488 10.2947 115.718 11.612C116.966 12.9293 117.59 14.5587 117.59 16.5C117.59 16.9333 117.547 17.3927 117.46 17.878H107.658ZM107.606 15.278H114.236C114.046 14.394 113.647 13.7353 113.04 13.302C112.451 12.8687 111.775 12.652 111.012 12.652C110.111 12.652 109.366 12.886 108.776 13.354C108.187 13.8047 107.797 14.446 107.606 15.278ZM127.68 23.364C124.941 23.364 122.679 22.454 120.894 20.634C119.108 18.814 118.216 16.5693 118.216 13.9C118.216 11.2133 119.108 8.96867 120.894 7.166C122.679 5.346 124.941 4.436 127.68 4.436C129.326 4.436 130.843 4.826 132.23 5.606C133.634 6.36867 134.726 7.40867 135.506 8.726L132.412 10.52C131.961 9.70533 131.32 9.07267 130.488 8.622C129.656 8.154 128.72 7.92 127.68 7.92C125.912 7.92 124.482 8.47467 123.39 9.584C122.315 10.6933 121.778 12.132 121.778 13.9C121.778 15.6507 122.315 17.0807 123.39 18.19C124.482 19.2993 125.912 19.854 127.68 19.854C128.72 19.854 129.656 19.6287 130.488 19.178C131.337 18.71 131.978 18.0773 132.412 17.28L135.506 19.074C134.726 20.3913 133.642 21.44 132.256 22.22C130.869 22.9827 129.344 23.364 127.68 23.364ZM140.071 12.236C140.383 11.404 140.894 10.78 141.605 10.364C142.333 9.948 143.139 9.74 144.023 9.74V13.484C143 13.3627 142.082 13.5707 141.267 14.108C140.47 14.6453 140.071 15.538 140.071 16.786V23H136.717V10H140.071V12.236ZM154.342 10H157.696V23H154.342V21.466C153.337 22.7313 151.924 23.364 150.104 23.364C148.371 23.364 146.88 22.7053 145.632 21.388C144.401 20.0533 143.786 18.424 143.786 16.5C143.786 14.576 144.401 12.9553 145.632 11.638C146.88 10.3033 148.371 9.636 150.104 9.636C151.924 9.636 153.337 10.2687 154.342 11.534V10ZM148.154 19.152C148.83 19.828 149.688 20.166 150.728 20.166C151.768 20.166 152.626 19.828 153.302 19.152C153.995 18.4587 154.342 17.5747 154.342 16.5C154.342 15.4253 153.995 14.55 153.302 13.874C152.626 13.1807 151.768 12.834 150.728 12.834C149.688 12.834 148.83 13.1807 148.154 13.874C147.478 14.55 147.14 15.4253 147.14 16.5C147.14 17.5747 147.478 18.4587 148.154 19.152ZM166.691 7.66C164.854 7.52133 163.935 8.258 163.935 9.87V10H166.691V13.224H163.935V23H160.581V13.224H158.709V10H160.581V9.87C160.581 8.03267 161.093 6.63733 162.115 5.684C163.138 4.73067 164.663 4.31467 166.691 4.436V7.66ZM175.031 13.224H172.093V18.632C172.093 19.0827 172.206 19.412 172.431 19.62C172.656 19.828 172.986 19.9493 173.419 19.984C173.852 20.0013 174.39 19.9927 175.031 19.958V23C172.726 23.26 171.096 23.0433 170.143 22.35C169.207 21.6567 168.739 20.4173 168.739 18.632V13.224H166.477V10H168.739V7.374L172.093 6.36V10H175.031V13.224Z" fill="#343234"/>
</svg>
